<svg role="img" xmlns="http://www.w3.org/2000/svg" viewBox="0 0 74 30" width="74" height="30" font-family="Segoe UI, Microsoft YaHei, Arial, sans-serif"><title>GD32</title><g><g><rect x="1" y="3" width="72" height="24" rx="6" fill="#5a9be6" fill-opacity=".055" stroke="#5a9be6" stroke-width="1" stroke-opacity=".38"/><g transform="translate(12,7.5) scale(0.75)"><rect x="4" y="4" width="14" height="14" rx="2.4" fill="#5a9be6" opacity=".16" stroke="#5a9be6" stroke-width="1.4"/><rect x="6" y="1.4" width="1.7" height="2.8" fill="#5a9be6" opacity=".85"/><rect x="9.2" y="1.4" width="1.7" height="2.8" fill="#5a9be6" opacity=".85"/><rect x="12.4" y="1.4" width="1.7" height="2.8" fill="#5a9be6" opacity=".85"/><rect x="6" y="17.8" width="1.7" height="2.8" fill="#5a9be6" opacity=".85"/><rect x="9.2" y="17.8" width="1.7" height="2.8" fill="#5a9be6" opacity=".85"/><rect x="12.4" y="17.8" width="1.7" height="2.8" fill="#5a9be6" opacity=".85"/><rect x="1.4" y="6" width="2.8" height="1.7" fill="#5a9be6" opacity=".85"/><rect x="1.4" y="9.2" width="2.8" height="1.7" fill="#5a9be6" opacity=".85"/><rect x="1.4" y="12.4" width="2.8" height="1.7" fill="#5a9be6" opacity=".85"/><rect x="17.8" y="6" width="2.8" height="1.7" fill="#5a9be6" opacity=".85"/><rect x="17.8" y="9.2" width="2.8" height="1.7" fill="#5a9be6" opacity=".85"/><rect x="17.8" y="12.4" width="2.8" height="1.7" fill="#5a9be6" opacity=".85"/><circle cx="7.4" cy="7.4" r="1.1" fill="#5a9be6" opacity=".95"/><rect x="10" y="10" width="6.4" height="6.4" rx="1.2" fill="#5a9be6" opacity=".35"/></g><text x="31" y="19.2" font-size="11.5" font-weight="500" letter-spacing=".35" fill="#b1c3db">GD32</text></g></g></svg>